<?xml version="1.0" encoding="utf-8"?>
<svg xmlns="http://www.w3.org/2000/svg" viewBox="157.442 152 441.561 100" width="441.561px" height="100px"><defs><style>
      .cls-1 {
        fill: #080905;
      }

      .cls-2 {
        fill: #0a0c06;
      }

      .cls-3 {
        fill: #c4ff61;
      }

      .cls-4 {
        fill: #0e1109;
      }

      .cls-5 {
        fill: #090b05;
      }

      .cls-6 {
        fill: #060704;
      }

      .cls-7 {
        fill: #050603;
      }

      .cls-8 {
        fill: #13170c;
      }

      .cls-9 {
        fill: #151a0d;
      }

      .cls-10 {
        fill: #090b06;
      }
    </style></defs><g id="object-4" transform="matrix(1, 0, 0, 1, 0, 7.105427357601002e-15)"><g><g transform="matrix(1, 0, 0, 1, -111.557991, 0)" id="object-2"><rect class="cls-3" x="269" width="100" height="100" style="" y="152" id="object-0"/><g transform="matrix(1, 0, 0, 1, -0.427994, 2.049995)" id="object-1"><g><g transform="matrix(1, 0, 0, 1, 0.014999, 1.296002)"><circle class="cls-2" cx="308.94" cy="169.87" r="4.4"/><circle class="cls-5" cx="288.88" cy="169.87" r="4.4"/><circle class="cls-5" cx="329.06" cy="169.85" r="4.41"/><circle class="cls-10" cx="349.11" cy="169.87" r="4.39"/></g><g><circle class="cls-8" cx="308.94" cy="158.69" r="2.18"/><circle class="cls-8" cx="329.03" cy="158.69" r="2.17"/></g><g transform="matrix(1, 0, 0, 1, 0.417999, -0.118998)"><circle class="cls-6" cx="307.86" cy="210.817" r="7.8"/><circle class="cls-2" cx="288.87" cy="210.817" r="4.4"/><circle class="cls-8" cx="277.72" cy="210.817" r="2.18"/><circle class="cls-5" cx="349.14" cy="210.817" r="4.4"/><circle class="cls-8" cx="360.3" cy="210.817" r="2.18"/><circle class="cls-6" cx="329.837" cy="210.817" r="7.8" style="stroke-width: 1;"/></g><g><circle class="cls-4" cx="308.94" cy="241.22" r="2.16"/><circle class="cls-4" cx="329.05" cy="241.23" r="2.16"/></g><g transform="matrix(1, 0, 0, 1, -0.417999, -0.592002)"><circle class="cls-6" cx="308.696" cy="189.824" r="7.8" style="stroke-width: 1;"/><circle class="cls-2" cx="289.706" cy="189.824" r="4.4" style="stroke-width: 1;"/><circle class="cls-8" cx="278.556" cy="189.824" r="2.18" style="stroke-width: 1;"/><circle class="cls-5" cx="349.976" cy="189.824" r="4.4" style="stroke-width: 1;"/><circle class="cls-8" cx="361.136" cy="189.824" r="2.18" style="stroke-width: 1;"/><circle class="cls-6" cx="330.673" cy="189.824" r="7.8" style="stroke-width: 1;"/></g><g transform="matrix(1, 0, 0, 1, 0.014999, 58.924)"><circle class="cls-2" cx="308.94" cy="169.87" r="4.4"/><circle class="cls-5" cx="288.88" cy="169.87" r="4.4"/><circle class="cls-5" cx="329.06" cy="169.85" r="4.41"/><circle class="cls-10" cx="349.11" cy="169.87" r="4.39"/></g></g></g><rect class="cls-3" x="374.362" width="336.199" height="100" style="stroke-width: 1;" y="152" id="rect-1"/></g><g transform="matrix(1, 0, 0, 1, 170.902557, 155.145004)"><path class="cls-8" d="M257.56,86.73l-12.24.26-.04-21.28c-9.21,5.59-21.03,2.5-26.23-6.88-2.76-4.98-3.33-10.82-2.14-16.35,2.02-9.4,10.12-15.6,19.63-15.74,3.13-.05,5.94.88,8.6,2.75l.41-2.33,12,.11.02,59.45ZM243.86,56.25c4.21-5.09,3.93-11.93.13-17.01-2.83-3.78-8.07-4.53-11.62-1.11-4.92,4.74-5.23,12.84-.88,18.06,1.63,1.96,3.83,3.1,6.04,3.11s4.63-1.01,6.32-3.05Z" style="fill: rgb(1, 2, 1);"/><path class="cls-5" d="M208.76,64.04c-5.23,3.82-11.19,4.84-17.43,4.42-11.53-.78-19.36-9.57-19.2-21.02.12-8.78,4.65-16.36,12.75-19.49,5.37-1.59,10.7-1.65,15.94.12,9.31,3.14,13.53,12.69,12.79,22.27l-28.84.04c.07,3.17,1.85,5.64,4.58,7.01,4.81,2.43,10.52.83,13.83-3.78l7.89,7.34-2.32,3.1ZM200.85,42.71c-.58-4.21-3.92-5.94-7.61-5.97s-7.54,1.59-8.13,5.97h15.74Z" style="fill: rgb(2, 3, 2);"/><path class="cls-10" d="M304.79,27.21l.03,40.75h-12s-.3-3.38-.3-3.38c-5.5,5.37-18.5,5.47-23.04-.78-2.03-2.8-3.09-6.7-3.1-10.32l-.06-26.28,12.08.04.13,25.71c.02,4.12,2.91,6.65,6.74,6.44,4.05-.21,7.3-2.96,7.33-7.37l.15-24.8h12.04Z" style="fill: rgb(0, 1, 0);"/><path class="cls-1" d="M381.48,66.31c-9.17,4.5-19.35,1.98-26.14-5.35l7.85-7.88c3.71,3.7,7.73,6.7,12.6,4.39.59-.28,1.33-1.65,1.27-2.26-.08-.7-1.23-1.69-2.09-1.87-6.5-1.42-16.99-3.98-18.21-11.69-.58-3.69.17-7.24,2.85-9.97,8.04-8.17,20.99-5.31,28.14,2.46l-7.84,7.79c-2.91-3.62-9.16-7.1-11.9-3.36-3.92,5.37,13.58,4.35,18.36,11.32,3.84,5.6,1.3,13.36-4.91,16.41Z" style="fill: rgb(1, 1, 1);"/><path class="cls-11" d="M417.51,35.97c.01.33-.62,1.37-.94,1.37l-8.85.04-.05,15.16c0,1.45.61,3.98,1.58,4.83,2.53,2.21,5.21.87,8.05-.62l-.02,9.54c-2.82,2.35-6.15,2.31-9.48,2.14-15.69-.82-11.74-20.25-12.4-30.95l-4.45-.25-.02-9.85,4.51-.32-.1-6.55.25-4.92h12.01s.14,11.55.14,11.55l9.47.13.29,8.7Z" style="fill: rgb(3, 4, 2);"/><path class="cls-8" d="M341.88,53.71l8.13,7.35c-7.87,10.93-29.73,10.07-36.42-2.78-3.72-7.15-3.43-15.94.8-22.74,3.55-5.71,9.68-8.45,16.21-8.77,7.81-.37,15.28,2.83,19.17,9.73,2.38,4.22,2.85,8.91,2.74,13.82l-28.79.05c-.17,2.37.9,4.18,2.59,5.64,4.6,3.97,11.43,3.26,15.56-2.3ZM339.76,42.67c-.9-4.64-4.36-5.87-7.97-5.93-3.83-.03-7.43,1.98-7.76,5.99l15.73-.06Z" style="fill: rgb(1, 2, 1);"/><g><rect x="153.56" y="6.72" width="12.24" height="61.24"/><g><path class="cls-5" d="M120.57,37.38l-.03,30.52-12.09.09-.04-30.5-4.47-.26.03-9.91,4.35-.22c.14-8.56,1.01-17.41,10.75-19.24,3.93-.74,7.64-.61,11.1,1.76l-.03,9.27c-2.42-1.01-5.58-2.3-7.74-.27s-1.84,5.65-1.74,8.53l9.51.11.02,10.04-9.6.08Z" style="fill: rgb(2, 3, 2);"/><rect x="135.19" y="27.22" width="12.12" height="40.74"/><path class="cls-14" d="M141.37,21.7c-3.74.15-6.56-2.8-6.58-6.01-.03-3.69,3.22-6.34,6.97-6.06,3.43.26,5.98,2.92,5.92,6.11s-2.58,5.82-6.3,5.97Z" style="fill: rgb(2, 3, 1);"/></g></g></g></g></g></svg>